<svg id="Layer_1" enable-background="new 0 0 512 512" height="512" viewBox="0 0 512 512" width="512" xmlns="http://www.w3.org/2000/svg"><g><path d="m245.002 10.998c-53.062 0-102.181 16.873-142.293 45.54l-3.866 396.104c40.803 30.378 91.38 48.36 146.16 48.36 135.311 0 245.002-109.691 245.002-245.002s-109.691-245.002-245.003-245.002z" fill="#ffc839"/><path d="m313.992 333.348c-49.5 0-49.5 10.165-99 10.165-49.498 0-49.498-10.165-98.997-10.165s-49.499 10.165-98.998 10.165c-.3 0-.59-.002-.887-.003 16.758 43.805 45.716 81.573 82.733 109.132 5.016-.304 10.654-.481 17.152-.481 49.498 0 49.498 10.165 98.997 10.165 49.5 0 49.5-10.165 99-10.165 49.502 0 49.502 10.165 99.004 10.165 46.932 0 49.369-9.137 91.681-10.085 4.068-.091 7.323-3.42 7.323-7.49v-111.403c-49.502 0-49.502 10.165-99.004 10.165s-49.502-10.165-99.004-10.165z" fill="#38c674"/><path d="m135.139 337.493c.539-1.35-.05-2.875-1.339-3.547-.054-.028-.099-.059-.152-.087-5.14-.323-10.938-.512-17.652-.512-49.499 0-49.499 10.165-98.998 10.165-.3 0-.59-.002-.887-.003 16.758 43.805 45.716 81.573 82.733 109.132 5.016-.304 10.654-.481 17.152-.481 43.602 0 48.802 7.886 83.255 9.765-90.314-44.458-69.497-110.931-64.112-124.432z" fill="#2ab663"/><path d="m504.321 56.347c-41.971.992-44.525 10.077-91.325 10.077-49.502 0-49.502-10.165-99.004-10.165-49.5 0-49.5 10.165-99 10.165-49.498 0-49.498-10.165-98.997-10.165-4.88 0-9.273.1-13.286.278-43.558 31.13-76.48 76.173-92.298 128.636 2.095.042 4.287.064 6.586.064 49.499 0 49.499-10.165 98.998-10.165 49.498 0 49.498 10.165 98.997 10.165 49.5 0 49.5-10.165 99-10.165 49.502 0 49.502 10.165 99.004 10.165s49.502-10.165 99.004-10.165v-111.232c0-4.208-3.472-7.592-7.679-7.493z" fill="#45304c"/><path d="m504.321 56.347c-41.971.992-44.525 10.077-91.325 10.077-23.824 0-36.182-2.354-48.111-4.797s-30.909 85.025 45.669 121.465c.892.424 1.509 1.229 1.709 2.143.246 0 .484.002.733.002 49.502 0 49.502-10.165 99.004-10.165v-111.232c0-4.208-3.472-7.592-7.679-7.493z" fill="#543e5b"/><path d="m10.411 185.174c2.095.042 4.287.064 6.586.064 27.892 0 40.067-3.227 54.238-6.045 0-.903-.424-1.77-1.191-2.302-29.893-20.727-24.828-62.698-24.828-62.7-15.196 21.374-27.057 45.285-34.805 70.983z" fill="#38273f"/><path d="m313.992 191.337c-49.5 0-49.5 10.165-99 10.165-49.498 0-49.498-10.165-98.997-10.165s-49.499 10.165-98.998 10.165c-3.916 0-7.52-.064-10.865-.181-4.008 17.582-6.132 35.882-6.132 54.679 0 24.761 3.687 48.657 10.518 71.187 2.064.04 4.218.062 6.479.062 49.499 0 49.499-10.165 98.998-10.165 49.498 0 49.498 10.165 98.997 10.165 49.5 0 49.5-10.165 99-10.165 49.502 0 49.502 10.165 99.004 10.165s49.502-10.165 99.004-10.165v-125.747c-49.502 0-49.502 10.165-99.004 10.165s-49.502-10.165-99.004-10.165z" fill="#e80054"/><path d="m419.573 201.438c.317.13.643.257.985.376 1.368.479 2.222 1.846 2.013 3.281-2.296 15.763-9.59 98.884 89.429 110.972v-124.73c-47.206 0-49.397 9.244-92.427 10.101z" fill="#ff4155"/><path d="m16.997 327.249c49.499 0 49.499-10.165 98.998-10.165 3.488 0 6.723.052 9.754.146-.187-.862-.764-1.617-1.619-1.985-69.967-30.092-50.057-103.13-45.253-117.755.405-1.232-.084-2.577-1.155-3.246-17.394 3.004-28.703 7.258-60.726 7.258-3.916 0-7.52-.064-10.865-.181-4.007 17.582-6.131 35.882-6.131 54.679 0 24.761 3.687 48.657 10.518 71.187 2.064.04 4.219.062 6.479.062z" fill="#b20453"/><path d="m166.877 146.33c-14.611-23.207-32.21-37.812-41.991-44.79-3.016-2.152-7.125.343-6.607 4.011 1.68 11.897 6.52 34.249 20.371 57.917.855 1.461 2.071 2.678 3.51 3.569l11.832 7.322c.901.557 2.038.562 2.943.012l11.18-6.788c.905-.55 1.426-1.561 1.346-2.617l-1.038-13.876c-.125-1.687-.644-3.328-1.546-4.76z" fill="#e9efff"/><path d="m168.398 150.898c-1.783 1.561-3.537 2.653-5.192 3.403-5.107 2.313-11.143.192-13.946-4.663-3.878-6.716-10.45-18.093-15.26-26.387-4.072-7.02-2.939-12.304-1.164-15.589-2.977-2.453-5.68-4.502-7.95-6.121-3.016-2.152-7.125.343-6.607 4.011 1.68 11.897 6.52 34.249 20.371 57.917.855 1.461 2.071 2.678 3.51 3.569l11.832 7.322c.901.557 2.038.562 2.943.012l11.18-6.788c.905-.55 1.426-1.561 1.346-2.617l-1.038-13.876c-.004-.065-.019-.129-.025-.193z" fill="#d3dcfb"/><path d="m263.123 146.33c14.611-23.207 32.21-37.812 41.99-44.79 3.016-2.152 7.125.343 6.607 4.011-1.68 11.897-6.52 34.249-20.371 57.917-.855 1.461-2.071 2.678-3.51 3.569l-11.832 7.322c-.901.557-2.038.562-2.943.012l-11.18-6.788c-.905-.55-1.426-1.561-1.347-2.617l1.039-13.876c.126-1.687.645-3.328 1.547-4.76z" fill="#e9efff"/><path d="m283.843 165.373c-4.84-4.222-5.81-11.384-2.493-16.884 5.696-9.444 15.885-26.232 19.984-32.322 2.671-3.968 6.248-4.683 9.344-4.297.44-2.339.781-4.458 1.044-6.32.518-3.669-3.591-6.163-6.607-4.011-9.781 6.979-27.379 21.583-41.99 44.79-.902 1.432-1.421 3.073-1.547 4.761l-1.039 13.876c-.079 1.056.441 2.067 1.347 2.617l11.18 6.788c.905.55 2.042.545 2.943-.012l11.004-6.809c-1.181-.62-2.236-1.362-3.17-2.177z" fill="#d3dcfb"/><path d="m313.992 174.057c-49.5 0-49.5 10.165-99 10.165-49.498 0-49.498-10.165-98.997-10.165s-49.499 10.165-98.998 10.165c-2.191 0-4.28-.021-6.285-.059-1.826 5.961-3.426 12.021-4.799 18.166 3.408.122 7.082.189 11.084.189 49.499 0 49.499-10.165 98.998-10.165 49.498 0 49.498 10.165 98.997 10.165 49.5 0 49.5-10.165 99-10.165 49.502 0 49.502 10.165 99.004 10.165s49.502-10.165 99.004-10.165v-18.297c-49.502 0-49.502 10.165-99.004 10.165s-49.502-10.164-99.004-10.164z" fill="#d3dcfb"/><path d="m411.835 184.218c.442.673.624 1.501.427 2.326-.942 3.947-1.438 11.866 8.296 15.271.381.133.716.34 1.005.593 41.119-1.098 43.97-10.054 90.437-10.054v-18.297c-49.502 0-49.502 10.165-99.004 10.165-.393 0-.774-.003-1.161-.004z" fill="#e9efff"/><path d="m78.59 195.112c-.281-.453-.688-.83-1.206-1.058-8.078-3.548-7.22-10.672-6.252-14.083.168-.594.134-1.208-.07-1.76-14.097 2.809-26.287 6.011-54.065 6.011-2.191 0-4.28-.021-6.285-.059-1.826 5.961-3.426 12.021-4.799 18.166 3.408.122 7.082.189 11.084.189 32.553 0 43.699-4.396 61.593-7.406z" fill="#bec8f7"/><path d="m313.992 316.068c-49.5 0-49.5 10.165-99 10.165-49.498 0-49.498-10.165-98.997-10.165s-49.499 10.165-98.998 10.165c-2.372 0-4.628-.024-6.783-.068 1.859 6.228 3.953 12.354 6.283 18.363.168 0 .331.002.5.002 49.499 0 49.499-10.165 98.998-10.165 49.498 0 49.498 10.165 98.997 10.165 49.5 0 49.5-10.165 99-10.165 49.502 0 49.502 10.165 99.004 10.165s49.502-10.165 99.004-10.165v-18.297c-49.502 0-49.502 10.165-99.004 10.165s-49.502-10.165-99.004-10.165z" fill="#d3dcfb"/><path d="m16.997 344.529c49.499 0 49.499-10.165 98.998-10.165 7.264 0 13.455.22 18.9.594-.263-.415-.632-.77-1.096-1.012-9.2-4.797-8.927-11.877-8.056-15.458.198-.814.017-1.643-.439-2.288-2.902-.085-5.991-.132-9.309-.132-49.499 0-49.499 10.165-98.998 10.165-2.372 0-4.628-.024-6.783-.068 1.859 6.228 3.953 12.354 6.283 18.363.168 0 .331.001.5.001z" fill="#bec8f7"/><g fill="#e9efff"><path d="m292.63 369.638-31.718-52.239c-2.161 4.729-4.565 9.317-7.196 13.746-.549.963-1.109 1.919-1.68 2.869l26.738 44.037c2.323 3.826 7.308 5.044 11.134 2.721s5.045-7.308 2.722-11.134z"/><path d="m169.089 317.399-31.718 52.239c-2.323 3.826-1.105 8.811 2.721 11.134s8.811 1.105 11.134-2.721l26.738-44.036c-.574-.954-1.136-1.915-1.688-2.882-2.627-4.427-5.028-9.01-7.187-13.734z"/><path d="m179.094 182.648-9.911-16.323c-2.323-3.826-7.308-5.044-11.134-2.721s-5.045 7.308-2.721 11.134l14.891 24.524c2.59-5.731 5.559-11.284 8.875-16.614z"/><path d="m271.951 163.603c-3.826-2.323-8.811-1.105-11.134 2.721l-9.911 16.323c3.315 5.33 6.285 10.884 8.876 16.615l14.891-24.525c2.323-3.826 1.104-8.81-2.722-11.134z"/></g><g><path d="m262.074 200.67c-9.029-20.829-22.725-39.041-39.719-53.226h-14.711c-16.994 14.185-30.689 32.397-39.718 53.226 9.632 17.252 15.141 37.256 15.141 58.585s-5.509 41.333-15.141 58.585c9.029 20.829 22.725 39.04 39.718 53.226h14.711c16.994-14.186 30.689-32.397 39.719-53.226-9.632-17.252-15.141-37.255-15.141-58.585 0-21.329 5.509-41.333 15.141-58.585z" fill="#ff4155"/><path d="m229.826 329.722-29.149-12.638c-18.9 6.675-24.577-11.988-24.577-11.988l-2.844 1.916c-1.603 3.713-3.377 7.329-5.33 10.828 9.029 20.829 22.725 39.04 39.718 53.226h14.711c10.608-8.855 19.93-19.279 27.635-30.929-15.515 3.78-20.164-10.415-20.164-10.415z" fill="#e80054"/><path d="m215 147.445h-7.355c-12.812 10.695-23.747 23.681-32.224 38.35.003.093.845 26.134 25.254 26.134 0 0 3.067 14.752 14.325 18.809z" fill="#ff7186"/><path d="m222.355 147.445h-2.178l6.419 83.604s3.848 13.39 19.987 7.977c0 0 .587.997 1.67 2.394 2.162-14.642 6.928-28.403 13.821-40.749-9.029-20.829-22.725-39.041-39.719-53.226z" fill="#ff7186"/><path d="m261.187 319.846c8.315-18.415 12.958-38.944 12.958-60.591s-4.643-42.176-12.958-60.591c-10.34 17.699-16.286 38.43-16.286 60.591-.001 22.161 5.946 42.891 16.286 60.591z" fill="#45304c"/><path d="m273.619 246.75c-1.426-17.052-5.736-33.256-12.432-48.086-7.121 12.191-12.157 25.819-14.604 40.362.012.022 11.199 19.119 27.036 7.724z" fill="#543e5b"/><path d="m168.813 319.846c10.339-17.699 16.286-38.43 16.286-60.591s-5.947-42.891-16.286-60.591c-8.315 18.415-12.958 38.944-12.958 60.591s4.643 42.176 12.958 60.591z" fill="#45304c"/><path d="m215 245.51c2.176 0 4.248.44 6.134 1.237 5.198-8.722 8.817-28.189 8.817-50.804 0-20.798-3.061-38.934-7.596-48.498-.771-.644-1.549-1.28-2.334-1.908-2.939-2.348-7.104-2.348-10.042 0-.785.627-1.563 1.264-2.334 1.908-4.535 9.564-7.596 27.699-7.596 48.498 0 22.615 3.619 42.083 8.817 50.804 1.886-.797 3.958-1.237 6.134-1.237z" fill="#e9efff"/><path d="m215 273c-2.175 0-4.248-.44-6.133-1.237-5.199 8.722-8.818 28.189-8.818 50.805 0 20.798 3.061 38.934 7.596 48.498.772.644 1.549 1.28 2.335 1.908 2.938 2.348 7.103 2.348 10.042 0 .785-.627 1.563-1.263 2.334-1.907 4.535-9.564 7.596-27.7 7.596-48.498 0-22.616-3.619-42.083-8.817-50.805-1.887.796-3.96 1.236-6.135 1.236z" fill="#d3dcfb"/><path d="m200.677 211.94c1.249 15.54 4.269 28.23 8.189 34.807 1.885-.796 3.958-1.237 6.134-1.237s4.248.44 6.134 1.237c2.137-3.585 4-9.008 5.462-15.698-20.106 2.707-25.869-18.872-25.919-19.109z" fill="#d3dcfb"/><ellipse cx="215" cy="259.255" fill="#e9efff" rx="15.778" ry="15.778" transform="matrix(.64 -.769 .769 .64 -121.805 258.64)"/></g></g></svg>